<?xml version="1.0" standalone="yes"?>
<svg xmlns="http://www.w3.org/2000/svg" width="180" height="180">
<path style="fill:#e2e0dd; stroke:none;" d="M0 0L0 33L1 33C3.37809 17.1344 17.8534 2.4097 34 1L0 0z"/>
<path style="fill:#d19d61; stroke:none;" d="M29 1L30 3L26 2L24 5L24 3L20 5L21 7L18 8L19 6L18 6L17 10L15 8L8 16L11 14L6 18L6 19L8 18L8 19L5 20L6 23C1.24507 23.6298 2.21497 31.0881 2 35L6 35L6 32C10.0144 28.757 10.7385 21.5562 14.2978 17.3002C20.1802 10.2663 28.0003 8.44711 36 5L36 0L29 1z"/>
<path style="fill:#292119; stroke:none;" d="M36 0L38 6L39 0L36 0z"/>
<path style="fill:#9d754e; stroke:none;" d="M39 0L39 2L48 2L47 4L51 4L51 1L88 1L88 24C89.668 20.025 91.1432 3.99515 87.3966 1.02779C84.4566 -1.3007 77.5311 0 74 0L39 0z"/>
<path style="fill:#885d31; stroke:none;" d="M88 0L89 1L88 0z"/>
<path style="fill:#292119; stroke:none;" d="M89 0L89 36L68 36L68 38L89 38L89 59L73 64L70 67L71 70L68 69L69 72L66 71L60 89C55.32 89 41.4857 91.3284 38.7222 86.8889C35.6603 81.9699 41.9259 67.2763 36 66C36.9288 71.0031 39.4169 83.3764 35.3966 87.3966C32.9708 89.8224 28.1008 88.9998 25 89L0 89L0 91L36 90L37 111C31.9437 111.684 25.8145 112.689 24 118L23 118C20.5421 115.944 19.1447 118.699 18 121L16 120C11.7441 127.318 8.07421 132.153 8 141L0 141L0 143C9.15206 143.298 8.44452 151.614 13.0401 157.961C18.4731 165.464 26.6984 170.574 36 171L39 180L39 171C48.9757 170.565 58.3338 165.841 63.4707 156.999C65.5127 153.484 65.9024 146.291 69.3171 144.028C73.7749 141.074 83.799 143 89 143L89 180L91 180L91 143L112 143L112 141L91 141L91 119C100.95 118.187 110.004 113.722 115.325 104.999C117.51 101.417 118.049 94.3512 121.433 91.9113C125.804 88.7603 136.892 90.4599 142 91L142 110L144 110L144 91L180 91L180 89L144 89L144 66C152.896 65.7427 161.757 61.3134 166.945 53.9853C171.652 47.3375 170.346 38.3144 180 38L180 36C170.451 35.689 171.721 26.7466 167.441 20.0008C162.25 11.8214 153.542 6.95097 144 6L144 0L142 0L142 6L128 10L128 11L131 11L131 12C125.327 12.505 120.91 13.7851 120 20L119 20L118 18L112 36L91 36L91 0L89 0z"/>
<path style="fill:#885d31; stroke:none;" d="M91 0L91 36L92 36C92 25.6131 95.0114 9.5596 91 0z"/>
<path style="fill:#9d754e; stroke:none;" d="M92 0L92 1L139 4L139 5C129.76 5.21724 122.235 10.589 117 18C122.865 13.8851 140.487 6.5835 141 0L92 0z"/>
<path style="fill:#885d31; stroke:none;" d="M141 0L140 6L141 0z"/>
<path style="fill:#d19d61; stroke:none;" d="M144 0L144 1L147 1L144 0z"/>
<path style="fill:#e2e0dd; stroke:none;" d="M147 0L147 1C162.756 3.32684 176.638 17.2307 179 33L180 33L180 0L147 0z"/>
<path style="fill:#9d754e; stroke:none;" d="M32 1L33 2L32 1z"/>
<path style="fill:#d19d61; stroke:none;" d="M51 1L51 4L47 4L48 2L39 2L39 6C47.3541 7.0844 59.0765 12.2227 59.8773 22.0039C60.3772 28.11 57.3088 34.0338 57 40C51.4997 43.6169 47.9271 49.7665 41.8295 52.9792C27.7166 60.4147 9.16973 56.2092 8 38L2 39L0 88L36 88L36 68L20 64L21 61C35.9277 71.4295 57.5777 64.4369 64.7562 48C68.0859 40.3757 66.6281 32.9589 66 25L67 25L69 35L89 35L88 1L51 1M92 1L92 35L112 35C112.041 20.6646 124.033 5.77644 139 5C128.677 -3.26807 104.791 1.93102 92 1z"/>
<path style="fill:#9d754e; stroke:none;" d="M144 1C144.787 5.71909 147.676 6.1432 152 7L155 5L153 8L171 21L173 35L177 34L176 29L177 29L177 31L178 31L176 27L176 23L175 23L176 29L173 21L175 22L168 13L169 16C163.907 10.738 163.811 5.93054 155 8L155 7L159 6L144 1z"/>
<path style="fill:#d19d61; stroke:none;" d="M149.667 1.33333L150.333 1.66667L149.667 1.33333z"/>
<path style="fill:#9d754e; stroke:none;" d="M27 2L27 3L30 3L27 2M35 2L36 3L35 2z"/>
<path style="fill:#d19d61; stroke:none;" d="M145 2L148 4L145 2M152.667 2.33333L153.333 2.66667L152.667 2.33333z"/>
<path style="fill:#9d754e; stroke:none;" d="M24 5L27 4L24 5M31 3L33 5L33 3L31 3z"/>
<path style="fill:#885d31; stroke:none;" d="M36 3L36 6L37 6L36 3z"/>
<path style="fill:#9d754e; stroke:none;" d="M106 3L107 4L106 3z"/>
<path style="fill:#d19d61; stroke:none;" d="M151 3L150 5L152 5L151 3M155.667 3.33333L156.333 3.66667L155.667 3.33333z"/>
<path style="fill:#9d754e; stroke:none;" d="M94 4L95 5L94 4M128 4L129 5L128 4z"/>
<path style="fill:#d19d61; stroke:none;" d="M157.667 4.33333L158.333 4.66667L157.667 4.33333z"/>
<path style="fill:#9d754e; stroke:none;" d="M21 5L22 6L21 5M35 5L36 6L35 5z"/>
<path style="fill:#885d31; stroke:none;" d="M38 5L39 6L38 5M144 5L145 6L144 5z"/>
<path style="fill:#d19d61; stroke:none;" d="M152 7L155 5L152 7M159 5L155 7L155 8L159 5z"/>
<path style="fill:#9d754e; stroke:none;" d="M18 8L21 6L18 8M23 6L22 8L23 6M26 6L27 7L26 6z"/>
<path style="fill:#e2e0dd; stroke:none;" d="M57 40C57.9906 33.0668 62.346 24.1996 58.9113 17.3002C49.3513 -1.90338 19.8002 5.58957 10.9653 21.0147C1.24214 37.9904 11.5124 59.5153 32 57.0123C42.9132 55.6791 49.7811 47.0428 57 40z"/>
<path style="fill:#9d754e; stroke:none;" d="M48.6667 6.33333L49.3333 6.66667L48.6667 6.33333z"/>
<path style="fill:#885d31; stroke:none;" d="M132 7L132 8L139 7L132 7M148.667 6.33333L149.333 6.66667L148.667 6.33333z"/>
<path style="fill:#d19d61; stroke:none;" d="M161 6L162 7L161 6z"/>
<path style="fill:#885d31; stroke:none;" d="M150 7L150 8L153 8L150 7z"/>
<path style="fill:#d19d61; stroke:none;" d="M162 7L163 8L162 7z"/>
<path style="fill:#9d754e; stroke:none;" d="M16 8L16 10L18 8L16 8M20 8L21 9L20 8M123 8L124 9L123 8z"/>
<path style="fill:#885d31; stroke:none;" d="M130.667 8.33333L131.333 8.66667L130.667 8.33333M154 8L155 9L154 8z"/>
<path style="fill:#d19d61; stroke:none;" d="M161 8L159 9L159 10L161 8M164 8L165 9L164 8z"/>
<path style="fill:#885d31; stroke:none;" d="M122 14L131 12L131 11L128 11L128 10L130 10L122 14M156 9L157 10L156 9z"/>
<path style="fill:#d19d61; stroke:none;" d="M165 9L166 10L165 9z"/>
<path style="fill:#9d754e; stroke:none;" d="M14 10L11 13L13 16L14 16L13 12L16 13L14 10z"/>
<path style="fill:#885d31; stroke:none;" d="M158 10L159 11L158 10z"/>
<path style="fill:#d19d61; stroke:none;" d="M166 10L169 16L166 10z"/>
<path style="fill:#885d31; stroke:none;" d="M159 11L160 12L159 11M136 12L137 13L136 12M160.667 12.3333L161.333 12.6667L160.667 12.3333M124 14L128 26L131 22L142 18C139.379 9.77805 129.846 16.7631 124 14M162 13L163 14L162 13z"/>
<path style="fill:#d19d61; stroke:none;" d="M169 13L170 14L169 13z"/>
<path style="fill:#9d754e; stroke:none;" d="M10 14L8 17C10.2508 16.5267 11.1178 16.1397 10 14z"/>
<path style="fill:#885d31; stroke:none;" d="M121 14L120 16L122 16L121 14M163 14L164 15L163 14z"/>
<path style="fill:#d19d61; stroke:none;" d="M165 14L166 15L165 14M170 14L171 15L170 14z"/>
<path style="fill:#9d754e; stroke:none;" d="M131 15L130 18L134 19L134 18L131 18L133 15L131 15z"/>
<path style="fill:#d19d61; stroke:none;" d="M133 15L133 16L134 18L135 18L136 15L133 15z"/>
<path style="fill:#9d754e; stroke:none;" d="M135 18L138 15L135 18z"/>
<path style="fill:#885d31; stroke:none;" d="M164 15L165 16L164 15z"/>
<path style="fill:#d19d61; stroke:none;" d="M171 15L172 16L171 15z"/>
<path style="fill:#885d31; stroke:none;" d="M119 16L119 20L120 20L119 16z"/>
<path style="fill:#e2e0dd; stroke:none;" d="M132 18L135 16L132 18z"/>
<path style="fill:#885d31; stroke:none;" d="M165 16L167 19L165 16z"/>
<path style="fill:#d19d61; stroke:none;" d="M169 16L172 21L169 16M131 17L132 18L131 17M172 17L173 18L172 17z"/>
<path style="fill:#9d754e; stroke:none;" d="M7 18L6 21L7 18z"/>
<path style="fill:#885d31; stroke:none;" d="M117 18L116 21L117 18z"/>
<path style="fill:#d19d61; stroke:none;" d="M173 18L174 19L173 18z"/>
<path style="fill:#9d754e; stroke:none;" d="M116 19L117 20L116 19z"/>
<path style="fill:#885d31; stroke:none;" d="M167 19L168 20L167 19z"/>
<path style="fill:#9d754e; stroke:none;" d="M9 20L7 25L8 25L9 20M115 20L114 23L115 20z"/>
<path style="fill:#885d31; stroke:none;" d="M168 20L169 24L170 24L168 20z"/>
<path style="fill:#d19d61; stroke:none;" d="M174 20L175 21L174 20z"/>
<path style="fill:#9d754e; stroke:none;" d="M5.33333 21.6667L5.66667 22.3333L5.33333 21.6667z"/>
<path style="fill:#292119; stroke:none;" d="M128 21L128 24L129 24L128 21z"/>
<path style="fill:#885d31; stroke:none;" d="M133 24L136 21L133 24z"/>
<path style="fill:#d19d61; stroke:none;" d="M170 21L171 22L170 21M173 21L176 29L176 21L173 21z"/>
<path style="fill:#885d31; stroke:none;" d="M115 22L116 23L115 22M114.333 23.6667L114.667 24.3333L114.333 23.6667M119.333 23.6667L119.667 24.3333L119.333 23.6667z"/>
<path style="fill:#d19d61; stroke:none;" d="M171 23L172 24L171 23z"/>
<path style="fill:#9d754e; stroke:none;" d="M65 24L66 25L65 24M113 24L112 29L113 29L113 24z"/>
<path style="fill:#885d31; stroke:none;" d="M122 24L122 26L124 26L122 24M170 24L171 29L172 29L170 24z"/>
<path style="fill:#9d754e; stroke:none;" d="M66 25L67 36L68 36L66 25M3.33333 26.6667L3.66667 27.3333L3.33333 26.6667z"/>
<path style="fill:#885d31; stroke:none;" d="M113.333 26.6667L113.667 27.3333L113.333 26.6667z"/>
<path style="fill:#d19d61; stroke:none;" d="M176.667 26.3333L177.333 26.6667L176.667 26.3333z"/>
<path style="fill:#9d754e; stroke:none;" d="M2 28L1 35L2 35L2 28z"/>
<path style="fill:#885d31; stroke:none;" d="M118 29L118 30L122 30L118 29z"/>
<path style="fill:#d19d61; stroke:none;" d="M1 29L2 30L1 29z"/>
<path style="fill:#885d31; stroke:none;" d="M112 29L112 32L113 32L112 29z"/>
<path style="fill:#9d754e; stroke:none;" d="M118 32L119 32L121 30L119 33L119 34L121 35L121 29L118 32z"/>
<path style="fill:#885d31; stroke:none;" d="M172 29L172 35L173 35L172 29z"/>
<path style="fill:#d19d61; stroke:none;" d="M176 29L176 35L179 29L178 29L176 29M119.667 30.3333L120.333 30.6667L119.667 30.3333z"/>
<path style="fill:#e2e0dd; stroke:none;" d="M119.667 31.3333L120.333 31.6667L119.667 31.3333z"/>
<path style="fill:#9d754e; stroke:none;" d="M6 32L7 33L6 32z"/>
<path style="fill:#885d31; stroke:none;" d="M118.333 32.6667L118.667 33.3333L118.333 32.6667z"/>
<path style="fill:#d19d61; stroke:none;" d="M119 32L121 34L121 32L119 32z"/>
<path style="fill:#885d31; stroke:none;" d="M122.333 32.6667L122.667 33.3333L122.333 32.6667z"/>
<path style="fill:#d19d61; stroke:none;" d="M174 32L175 33L174 32z"/>
<path style="fill:#9d754e; stroke:none;" d="M178 32L177 36L178 36L178 32z"/>
<path style="fill:#d19d61; stroke:none;" d="M0 33L0 36L1 36L0 33M179 33L179 36L180 36L179 33z"/>
<path style="fill:#9d754e; stroke:none;" d="M3 34L4 35L3 34M6 34L7 35L6 34z"/>
<path style="fill:#885d31; stroke:none;" d="M119 34C120.127 36.0059 120.873 36.0059 122 34L119 34M1 35L1 36L7 36L1 35z"/>
<path style="fill:#d19d61; stroke:none;" d="M7.33333 35.6667L7.66667 36.3333L7.33333 35.6667z"/>
<path style="fill:#885d31; stroke:none;" d="M68.6667 35.3333L69.3333 35.6667L68.6667 35.3333z"/>
<path style="fill:#9d754e; stroke:none;" d="M70 35L70 36L88 36L70 35z"/>
<path style="fill:#885d31; stroke:none;" d="M88 35L89 36L88 35z"/>
<path style="fill:#9d754e; stroke:none;" d="M92 35L92 36L111 36L92 35z"/>
<path style="fill:#885d31; stroke:none;" d="M111 35L112 36L111 35M173 35L173 36L177 36L173 35M178 35L179 36L178 35z"/>
<path style="fill:#292119; stroke:none;" d="M0 36L0 38L7 38L7 36L0 36z"/>
<path style="fill:#885d31; stroke:none;" d="M67 36L69 39L67 36z"/>
<path style="fill:#9d754e; stroke:none;" d="M7 37L8 38L7 37M0 38L0 64L1 64C1 58.3885 -0.271447 38.9321 4 40L4 39L0 38z"/>
<path style="fill:#885d31; stroke:none;" d="M1 38L2 39L1 38M3 38L3 39L6 39L3 38z"/>
<path style="fill:#9d754e; stroke:none;" d="M6 38L7 39L6 38M67 38C65.7402 52.3385 54.4498 55.4031 48 66L39 66L39 68C55.2217 67.6544 68.2911 55.2603 69 39L89 39L89 38L67 38z"/>
<path style="fill:#885d31; stroke:none;" d="M91 38L91 59L92 59L91 38z"/>
<path style="fill:#9d754e; stroke:none;" d="M92 38L92 39L112 39L92 38z"/>
<path style="fill:#885d31; stroke:none;" d="M173 38C167.829 52.1348 161.167 64.9067 144 66L144 67C158.572 66.6976 175.516 54.2191 173 38z"/>
<path style="fill:#9d754e; stroke:none;" d="M144 69C156.833 65.9094 179.258 56.5269 175 39L179 39L179 48C180.299 44.9036 178.777 33.8599 174.023 39.608C168.787 45.9391 169.572 54.3698 161.985 60.3164C156.983 64.2377 147.721 64.676 144 69z"/>
<path style="fill:#885d31; stroke:none;" d="M179 38L180 39L179 38z"/>
<path style="fill:#d19d61; stroke:none;" d="M69 39C67.7204 54.6458 54.7643 67.2797 39 68L39 88L59 88C59.9227 77.4317 65.9662 68.0323 75 62.4684C78.4832 60.323 85.63 59.7721 87.9722 56.4861C90.7322 52.6141 89 43.5923 89 39L69 39M92 39L92 58C107.287 60.2576 119.724 72.3951 121 88L141 88L141 68C126.405 66.033 112.704 54.3684 112 39L92 39M175 39C176.473 50.2643 165.379 61.26 156 65.6728C153.074 67.0496 147.026 67.0605 145.028 69.6026C142.098 73.331 144 83.4257 144 88L180 88L179 39L175 39z"/>
<path style="fill:#e2e0dd; stroke:none;" d="M58 41L60 45L60 41L58 41z"/>
<path style="fill:#885d31; stroke:none;" d="M112 41L112 44L113 44L112 41z"/>
<path style="fill:#9d754e; stroke:none;" d="M112 44L113 45L112 44z"/>
<path style="fill:#885d31; stroke:none;" d="M113 45L114 46L113 45z"/>
<path style="fill:#9d754e; stroke:none;" d="M113.333 46.6667L113.667 47.3333L113.333 46.6667M7 47L9 49L9 47L7 47z"/>
<path style="fill:#885d31; stroke:none;" d="M114 48L115 49L114 48z"/>
<path style="fill:#9d754e; stroke:none;" d="M175 48L176 49L175 48M114 49L115 50L114 49z"/>
<path style="fill:#885d31; stroke:none;" d="M115 50C119.106 57.9142 126.894 65.0673 136 66L136 65C126.685 62.7669 121.896 55.965 115 50z"/>
<path style="fill:#9d754e; stroke:none;" d="M115 51L116 52L115 51M174.333 52.6667L174.667 53.3333L174.333 52.6667M116 53L117 54L116 53M117 54L118 55L117 54M118 55L119 56L118 55z"/>
<path style="fill:#e2e0dd; stroke:none;" d="M72 56L73 57L72 56z"/>
<path style="fill:#9d754e; stroke:none;" d="M119 56L120 57L119 56M179 56L179 64L180 64L179 56M88 57L85 58L85 59L89 58L88 57M120 57L121 58L120 57z"/>
<path style="fill:#885d31; stroke:none;" d="M88 58L89 59L88 58z"/>
<path style="fill:#9d754e; stroke:none;" d="M92 58L92 59L96 59L92 58M121 58L122 59L121 58M78 60L78 61L83 60L78 60z"/>
<path style="fill:#885d31; stroke:none;" d="M83 59L83 60L86 60L83 59M96.6667 59.3333L97.3333 59.6667L96.6667 59.3333z"/>
<path style="fill:#9d754e; stroke:none;" d="M98 59L99 60L98 59M122 59L123 60L122 59M17 60L18 61L17 60z"/>
<path style="fill:#885d31; stroke:none;" d="M80.6667 60.3333L81.3333 60.6667L80.6667 60.3333M99 60L100 61L99 60z"/>
<path style="fill:#9d754e; stroke:none;" d="M100.667 60.3333L101.333 60.6667L100.667 60.3333M123 60L124 61L123 60M19 61L20 62L19 61M20 64L36 68L36 66C31.7344 65.3729 22.6652 60.3434 20 64M76 61L77 62L76 61z"/>
<path style="fill:#885d31; stroke:none;" d="M77 61L77 62L80 62L77 61M101.667 61.3333L102.333 61.6667L101.667 61.3333z"/>
<path style="fill:#9d754e; stroke:none;" d="M103 61L104 62L103 61M124 61L125 62L124 61M74 62L73 64L74 62z"/>
<path style="fill:#885d31; stroke:none;" d="M74 65L77 62L74 65M104 62L106 64L104 62z"/>
<path style="fill:#9d754e; stroke:none;" d="M105 62L106 63L105 62M125 62L126 63L125 62M106 63L107 64L106 63M127 63L128 64L127 63z"/>
<path style="fill:#885d31; stroke:none;" d="M48 64L49 65L48 64z"/>
<path style="fill:#9d754e; stroke:none;" d="M71 64L68 68L71 64z"/>
<path style="fill:#885d31; stroke:none;" d="M72 64L71 66L73 66L72 64M107 64L109 66L107 64z"/>
<path style="fill:#9d754e; stroke:none;" d="M108 64L109 65L108 64M128.667 64.3333L129.333 64.6667L128.667 64.3333M36 65L36 66L39 66L36 65z"/>
<path style="fill:#885d31; stroke:none;" d="M47 65L48 66L47 65M75.3333 65.6667L75.6667 66.3333L75.3333 65.6667M72 75L73 75L73 73L74 73L74 77L75 77L75 73L76 73L76 76L77 76L78 74L80 76L78 68L86 68L81 71L81 72L88 72L90 67L82 65L83 67L81 65C75.8427 67.0368 72.905 69.3613 72 75z"/>
<path style="fill:#9d754e; stroke:none;" d="M109 65L110 66L109 65M130.667 65.3333L131.333 65.6667L130.667 65.3333z"/>
<path style="fill:#885d31; stroke:none;" d="M70 66L71 67L70 66z"/>
<path style="fill:#9d754e; stroke:none;" d="M110 66L111 67L110 66M133 66L133 67L141 68L133 66z"/>
<path style="fill:#885d31; stroke:none;" d="M137 66L137 67L141 67L137 66M63 75L66 71L68 72L69 72L68 69L71 70L70 67L63 75M111 67L112 68L111 67M141 67L141 71L142 71L141 67z"/>
<path style="fill:#9d754e; stroke:none;" d="M0 68L0 72L1 72L0 68z"/>
<path style="fill:#885d31; stroke:none;" d="M36 68L36 88L37 88L36 68z"/>
<path style="fill:#9d754e; stroke:none;" d="M78 68L81 72L81 71L78 68z"/>
<path style="fill:#d19d61; stroke:none;" d="M79 68L79 69L85 70L79 68z"/>
<path style="fill:#9d754e; stroke:none;" d="M85.3333 68.6667L85.6667 69.3333L85.3333 68.6667M112 68L115 71L112 68z"/>
<path style="fill:#885d31; stroke:none;" d="M38 69L38 88L39 88L38 69z"/>
<path style="fill:#9d754e; stroke:none;" d="M66 69L67 70L66 69z"/>
<path style="fill:#e2e0dd; stroke:none;" d="M79 69L79 70L83 70L79 69z"/>
<path style="fill:#885d31; stroke:none;" d="M112 69L113 70L112 69z"/>
<path style="fill:#9d754e; stroke:none;" d="M65 70L66 71L65 70z"/>
<path style="fill:#885d31; stroke:none;" d="M71 70L72 71L71 70z"/>
<path style="fill:#d19d61; stroke:none;" d="M79 70L80 71L79 70M81 70L82 71L81 70z"/>
<path style="fill:#9d754e; stroke:none;" d="M82.6667 70.3333L83.3333 70.6667L82.6667 70.3333z"/>
<path style="fill:#885d31; stroke:none;" d="M113 70L114 71L113 70z"/>
<path style="fill:#292119; stroke:none;" d="M74 71L75 72L74 71z"/>
<path style="fill:#885d31; stroke:none;" d="M114 71L115 72L114 71z"/>
<path style="fill:#9d754e; stroke:none;" d="M141 71L142 72L141 71z"/>
<path style="fill:#885d31; stroke:none;" d="M115 72L118 80L119 80L115 72M141 72L141 88L142 88L141 72z"/>
<path style="fill:#9d754e; stroke:none;" d="M179 72L179 80L180 80L179 72M63 73L64 74L63 73M116 73L117 74L116 73M62 75L63 76L62 75M117 75L118 76L117 75z"/>
<path style="fill:#885d31; stroke:none;" d="M62 76L63 77L62 76z"/>
<path style="fill:#9d754e; stroke:none;" d="M61 77L62 78L61 77M118 77L119 78L118 77z"/>
<path style="fill:#885d31; stroke:none;" d="M61.3333 78.6667L61.6667 79.3333L61.3333 78.6667z"/>
<path style="fill:#9d754e; stroke:none;" d="M119.333 79.6667L119.667 80.3333L119.333 79.6667z"/>
<path style="fill:#885d31; stroke:none;" d="M60 80L60 83L61 83L60 80M66 81L69 82L69 87L66 86L66 87L70 88L68 80L66 81M71 81L72 82L71 81M119 81L119 84L120 84L119 81z"/>
<path style="fill:#9d754e; stroke:none;" d="M179 81L179 84L180 84L179 81M66 82L67 83L66 82z"/>
<path style="fill:#d19d61; stroke:none;" d="M67 82L69 86L69 85L67 82z"/>
<path style="fill:#9d754e; stroke:none;" d="M68 82L69 83L68 82M59 83L59 88L60 88L59 83z"/>
<path style="fill:#e2e0dd; stroke:none;" d="M67 83L67 85L69 85L69 83L67 83z"/>
<path style="fill:#9d754e; stroke:none;" d="M120 83L120 88L121 88L120 83M66 85L67 86L66 85M67.6667 86.3333L68.3333 86.6667L67.6667 86.3333z"/>
<path style="fill:#885d31; stroke:none;" d="M0 88L0 89L36 89C26.4404 84.9886 10.3869 88 0 88M39 88L39 89L60 89L39 88M120 88L120 89L141 89L120 88M144 88L144 89L180 89C170.44 84.9886 154.387 88 144 88M30.6667 90.3333L31.3333 90.6667L30.6667 90.3333M33 90L34 91L33 90M35 90L36 111L37 111C37 104.763 38.8784 95.1193 35 90M53 90L53 91L57 91L53 90M122.667 90.3333L123.333 90.6667L122.667 90.3333M128 90L128 91L131 91L128 90M135 90L135 91L139 91L135 90z"/>
<path style="fill:#9d754e; stroke:none;" d="M0 91L1 92L0 91z"/>
<path style="fill:#d19d61; stroke:none;" d="M7 140C6.53488 129.305 13.9655 119.607 23 114.363C26.23 112.489 32.6837 112.146 34.9722 109.262C37.8965 105.575 36 95.5359 36 91L10 91C7.48276 91.0011 2.79007 90.2192 1.06713 92.6034C-0.810976 95.2023 0.994974 101.873 1 105C1.01386 113.619 -4.09098 139.631 7 140M39 91C39 95.5754 37.0978 105.667 40.0278 109.397C41.6689 111.487 45.6677 111.398 48 112.353C53.0749 114.43 57.8946 118.033 61.4815 122.17C65.801 127.151 66.0014 134.813 69.9877 139.397C72.8073 142.639 87.3162 142.452 88.6821 137.852C93.9015 120.271 81.2706 121.826 71.2855 113.39C64.1292 107.345 60.745 99.9675 59 91L39 91z"/>
<path style="fill:#9d754e; stroke:none;" d="M59 91L59 94L60 94L59 91M120 91C119.696 105.285 107.11 120.047 92 119L92 120C109.798 122.96 118.565 104.944 122 91L120 91z"/>
<path style="fill:#d19d61; stroke:none;" d="M92 120L93.6034 139.972L112 141C113.209 125.805 124.184 110.205 141 111L141 91C136.401 91 126.362 89.1033 122.6 92.0278C119.802 94.202 119.636 100.834 117.895 104C112.8 113.264 102.798 120.47 92 120z"/>
<path style="fill:#885d31; stroke:none;" d="M141 91L142 111L143 111L141 91z"/>
<path style="fill:#d19d61; stroke:none;" d="M144 91L144 111C151.896 110.935 162.989 117.416 164.872 125.576C166.089 130.851 163.389 138.504 163 144C158.384 145.512 156.728 149.886 153.447 153.154C148.528 158.052 134.783 163.593 128 161L127 161C119.151 162.954 113.386 150.112 112 144L92 144L92 180L93 180L94 178L98 178L102 178L103 180L104 180L104 178C107.133 179.256 112.42 180.592 115 178L116 178L116 180L117 180L122 180L141 179L140 173C132.036 173.703 127.579 168.183 121 165L121 164L136 171C142.365 169.485 148.891 170.433 155 167.647C171.265 160.23 172.98 143.366 170 128L171 128L174 139L174 140L180 140L180 92L144 91z"/>
<path style="fill:#9d754e; stroke:none;" d="M178.667 91.3333L179.333 91.6667L178.667 91.3333z"/>
<path style="fill:#e2e0dd; stroke:none;" d="M32 92L33 93L32 92z"/>
<path style="fill:#885d31; stroke:none;" d="M38 92L38 110L39 110L38 92M119 93L119 98L120 98L119 93z"/>
<path style="fill:#9d754e; stroke:none;" d="M179 94L180 95L179 94M0 96L0 130L1 130L0 96z"/>
<path style="fill:#885d31; stroke:none;" d="M60.3333 96.6667L60.6667 97.3333L60.3333 96.6667z"/>
<path style="fill:#9d754e; stroke:none;" d="M60 98L61 99L60 98z"/>
<path style="fill:#885d31; stroke:none;" d="M118 98L118 101L119 101L118 98M61 99L62 100L61 99z"/>
<path style="fill:#9d754e; stroke:none;" d="M61 100L62 101L61 100z"/>
<path style="fill:#885d31; stroke:none;" d="M62 101L63 102L62 101M117 101L116 105L117 105L117 101z"/>
<path style="fill:#9d754e; stroke:none;" d="M62 102L64 105L62 102z"/>
<path style="fill:#885d31; stroke:none;" d="M63 103L64 104L63 103M64 105C69.3082 112.535 76.5224 118.514 86 119L86 118C76.3726 117.034 71.4159 110.223 64 105M115 105L113 109L115 105z"/>
<path style="fill:#9d754e; stroke:none;" d="M64 106L65 107L64 106M65 107L66 108L65 107M66 108L67 109L66 108M67 109L68 110L67 109z"/>
<path style="fill:#885d31; stroke:none;" d="M112 109L113 110L112 109z"/>
<path style="fill:#9d754e; stroke:none;" d="M34.6667 110.333L35.3333 110.667L34.6667 110.333M39 110L40 111L39 110M68 110L69 111L68 110z"/>
<path style="fill:#885d31; stroke:none;" d="M111 110L110 112L112 112L111 110z"/>
<path style="fill:#e2e0dd; stroke:none;" d="M127 161L128 161L129 163L130 163L147.996 157.511L163 144C163.8 137.572 167.199 127.929 163.812 122.004C152.516 102.238 121.225 110.032 114.129 129C110.725 138.099 111.328 147.228 116.721 155.267C118.686 158.197 123.38 164.132 127 161z"/>
<path style="fill:#9d754e; stroke:none;" d="M141 110L142 111L141 110M143 110L144 111L143 110M29.6667 111.333L30.3333 111.667L29.6667 111.333z"/>
<path style="fill:#885d31; stroke:none;" d="M31 111L31 112L34 112L31 111M43.6667 111.333L44.3333 111.667L43.6667 111.333z"/>
<path style="fill:#9d754e; stroke:none;" d="M45.6667 111.333L46.3333 111.667L45.6667 111.333M69 111L70 112L69 111M26.6667 112.333L27.3333 112.667L26.6667 112.333z"/>
<path style="fill:#885d31; stroke:none;" d="M28.6667 112.333L29.3333 112.667L28.6667 112.333M46.6667 112.333L47.3333 112.667L46.6667 112.333z"/>
<path style="fill:#9d754e; stroke:none;" d="M48 112L49 113L48 112M70 112L70 114L72 114L70 112z"/>
<path style="fill:#885d31; stroke:none;" d="M106 115L110 112L106 115z"/>
<path style="fill:#9d754e; stroke:none;" d="M24 113L25 114L24 113z"/>
<path style="fill:#885d31; stroke:none;" d="M22 115L23 118L24 118L28 114L22 115M49 113L50 114L49 113z"/>
<path style="fill:#9d754e; stroke:none;" d="M50 113L51 114L50 113M22 114L23 115L22 114z"/>
<path style="fill:#885d31; stroke:none;" d="M51 114L52 115L51 114z"/>
<path style="fill:#9d754e; stroke:none;" d="M52 114L53 115L52 114M72 114L73 115L72 114M17 119L22 116L17 119z"/>
<path style="fill:#885d31; stroke:none;" d="M53 115L56 117L56 116L53 115z"/>
<path style="fill:#9d754e; stroke:none;" d="M54 115L55 116L54 115M74 115L75 116L74 115z"/>
<path style="fill:#885d31; stroke:none;" d="M104.667 115.333L105.333 115.667L104.667 115.333M20 116L21 117L20 116M27 116L28 117L27 116z"/>
<path style="fill:#9d754e; stroke:none;" d="M75 116L76 117L75 116z"/>
<path style="fill:#885d31; stroke:none;" d="M102.667 116.333L103.333 116.667L102.667 116.333M19 117L20 118L19 117M31 117C31 120.154 22.0481 120.564 19 120L20 124L19 124L19 122L18 122L19 126L25 127L22 131L37 122L37 119L31 117M56 117L57 118L56 117z"/>
<path style="fill:#9d754e; stroke:none;" d="M77.6667 117.333L78.3333 117.667L77.6667 117.333z"/>
<path style="fill:#885d31; stroke:none;" d="M95 118L95 119L102 118L95 118M18 118L19 119L18 118M21.6667 118.333L22.3333 118.667L21.6667 118.333M57 118L58 119L57 118z"/>
<path style="fill:#9d754e; stroke:none;" d="M79.6667 118.333L80.3333 118.667L79.6667 118.333z"/>
<path style="fill:#885d31; stroke:none;" d="M16 119L18 121L18 119L16 119M58 119L59 120L58 119z"/>
<path style="fill:#9d754e; stroke:none;" d="M82 119L82 120L88 122C88.5416 118.714 84.5754 119.042 82 119z"/>
<path style="fill:#885d31; stroke:none;" d="M88 119L89 120L88 119M91 119L91 139L92 139L91 119M94 119L95 120L94 119M15 120L12 125L15 120z"/>
<path style="fill:#9d754e; stroke:none;" d="M27 120L26 122L27 120z"/>
<path style="fill:#d19d61; stroke:none;" d="M28 120L28 121L29 123L32 122L32 121L28 120z"/>
<path style="fill:#9d754e; stroke:none;" d="M31 120L34 122L31 120z"/>
<path style="fill:#885d31; stroke:none;" d="M39 120L40 121L39 120M59 120L64 126L59 120z"/>
<path style="fill:#9d754e; stroke:none;" d="M60 120L61 121L60 120z"/>
<path style="fill:#292119; stroke:none;" d="M21 121L22 122L21 121z"/>
<path style="fill:#e2e0dd; stroke:none;" d="M27 121L28 123L29 123L30 121L27 121z"/>
<path style="fill:#9d754e; stroke:none;" d="M61 121L62 122L61 121M13 122L14 123L13 122z"/>
<path style="fill:#d19d61; stroke:none;" d="M26.6667 122.333L27.3333 122.667L26.6667 122.333z"/>
<path style="fill:#9d754e; stroke:none;" d="M31 122L32 123L31 122M12 123L13 124L12 123M26 123L26 124L29 124L26 123M62 123L63 124L62 123M11 124L9 129L10 129L11 124z"/>
<path style="fill:#885d31; stroke:none;" d="M30 125L33 128L35 124L30 125z"/>
<path style="fill:#9d754e; stroke:none;" d="M63 124L64 125L63 124z"/>
<path style="fill:#292119; stroke:none;" d="M24 125L25 126L24 125M27 125L26 127L27 125z"/>
<path style="fill:#885d31; stroke:none;" d="M11 126L12 127L11 126z"/>
<path style="fill:#9d754e; stroke:none;" d="M64 126L65 129L66 129L64 126z"/>
<path style="fill:#885d31; stroke:none;" d="M10 127L11 128L10 127M15 127L16 128L15 127M18 127L18 128L21 129L21 128L21 127L18 127M64 127L65 128L64 127z"/>
<path style="fill:#9d754e; stroke:none;" d="M170 128L172 140L176 139L170 128z"/>
<path style="fill:#885d31; stroke:none;" d="M9.33333 129.667L9.66667 130.333L9.33333 129.667M17.3333 129.667L17.6667 130.333L17.3333 129.667M65 129L68 141L69 141L65 129z"/>
<path style="fill:#9d754e; stroke:none;" d="M8 130L7 136L8 136L8 130M66 130L67 131L66 130z"/>
<path style="fill:#885d31; stroke:none;" d="M8.33333 132.667L8.66667 133.333L8.33333 132.667M20 132L20 134L22 134L22 132L20 132z"/>
<path style="fill:#9d754e; stroke:none;" d="M67.3333 132.667L67.6667 133.333L67.3333 132.667M179 132L180 133L179 132M0 133L0 137L1 137L0 133z"/>
<path style="fill:#885d31; stroke:none;" d="M18 141C17.8655 129.648 9.74879 136.836 18 141z"/>
<path style="fill:#9d754e; stroke:none;" d="M14 134L15 135L14 134z"/>
<path style="fill:#d19d61; stroke:none;" d="M15 134L17 138L15 134z"/>
<path style="fill:#9d754e; stroke:none;" d="M16 134L17 135L16 134z"/>
<path style="fill:#885d31; stroke:none;" d="M23.3333 134.667L23.6667 135.333L23.3333 134.667z"/>
<path style="fill:#e2e0dd; stroke:none;" d="M15.3333 135.667L15.6667 136.333L15.3333 135.667z"/>
<path style="fill:#9d754e; stroke:none;" d="M68 135L68 140L69 140L68 135z"/>
<path style="fill:#e2e0dd; stroke:none;" d="M165 135L166 136L165 135z"/>
<path style="fill:#9d754e; stroke:none;" d="M179 135L180 136L179 135z"/>
<path style="fill:#885d31; stroke:none;" d="M7 136L7 141L8 141L7 136z"/>
<path style="fill:#9d754e; stroke:none;" d="M6.33333 137.667L6.66667 138.333L6.33333 137.667M14 137L15 138L14 137M0 138C0.796252 141.716 3.63729 141 7 141L7 140L0 138M15.6667 138.333L16.3333 138.667L15.6667 138.333M179 138L180 139L179 138M91 139L93 141L91 139M69 140L70 141L69 140M88 140L89 141L88 140z"/>
<path style="fill:#885d31; stroke:none;" d="M91 140L92 141L91 140M172 140L172 141L175 141L172 140z"/>
<path style="fill:#9d754e; stroke:none;" d="M175 140L175 141L180 141L175 140M171.333 141.667L171.667 142.333L171.333 141.667z"/>
<path style="fill:#292119; stroke:none;" d="M172 141L172 143L180 143L180 141L172 141z"/>
<path style="fill:#9d754e; stroke:none;" d="M0 143L1 144L0 143z"/>
<path style="fill:#885d31; stroke:none;" d="M1 143L1 144L7 147C7.86693 143.14 4.06063 143.1 1 143M68 143C63.2649 157.844 56.1011 169.601 39 171L39 172C49.9347 171.773 59.3899 166.847 64.6759 157C66.912 152.834 67.1811 147.663 70 144L68 143z"/>
<path style="fill:#9d754e; stroke:none;" d="M70 143L70 144L88 144L70 143z"/>
<path style="fill:#885d31; stroke:none;" d="M88 143L89 144L88 143M91 143L91 180L92 180C92 169.351 95.1113 152.798 91 143z"/>
<path style="fill:#9d754e; stroke:none;" d="M92 143L92 144L95 144L92 143z"/>
<path style="fill:#885d31; stroke:none;" d="M95 143L96 144L95 143z"/>
<path style="fill:#9d754e; stroke:none;" d="M96 143L96 144L112 144L96 143z"/>
<path style="fill:#885d31; stroke:none;" d="M172 143L172 144L180 144L172 143z"/>
<path style="fill:#d19d61; stroke:none;" d="M2 146L3 150L3 156L6 158L4 157L4 158L7 160C7.49741 165.417 11.717 168.975 16 172L15 170L16 170C19.2307 175.101 23.9008 177.84 30 177L29 179L30 179L36 180L36 179L33 179L33 178L36 174L18 168L7 144L2 146z"/>
<path style="fill:#9d754e; stroke:none;" d="M68 144C67.2871 159.563 54.2232 171.336 39 172L39 174C51.6656 173.737 74.3943 159.677 68 144z"/>
<path style="fill:#d19d61; stroke:none;" d="M69 144C68.2996 160.065 55.021 173.302 39 174L39 179L41 180L42 180L42 178L43 178L54 179.94L88 180L89 144L69 144z"/>
<path style="fill:#9d754e; stroke:none;" d="M171 144C169.127 165.448 151.891 166.303 136 171L121 164L121 165C127.644 169.731 132.662 173.193 141 174L138 172L138 171L147 171L147 172L144 175L146 173L162 170L169 161L170 165L168 164L168 165L168 166L170 166L170 158L172 162L173 162L173 152L175 153L174 144L171 144z"/>
<path style="fill:#d19d61; stroke:none;" d="M174 144L175 153L173 152L173 162L172 162L170 158L168 166L168 165L168 164L170 165L170 164L169 161L162 170L146 173L144 175L147 180L151 176L149 178L149 179L153 176L156 177L156 174C159.674 175.94 161.93 173.703 163 170L165 172C169.337 167.626 175.398 162.576 175 156L176 154L178 147L180 144L174 144z"/>
<path style="fill:#e2e0dd; stroke:none;" d="M163 145L163 150L164 150L163 145z"/>
<path style="fill:#9d754e; stroke:none;" d="M1.33333 146.667L1.66667 147.333L1.33333 146.667z"/>
<path style="fill:#e2e0dd; stroke:none;" d="M0 147L0 180L33 180L33 179C14.096 176.169 8.00032 161.697 0 147z"/>
<path style="fill:#9d754e; stroke:none;" d="M7 147L7 150L8 150L7 147M178 147L179 148L178 147z"/>
<path style="fill:#e2e0dd; stroke:none;" d="M179 147C176.641 162.747 162.747 176.641 147 179L147 180L180 180L179 147z"/>
<path style="fill:#885d31; stroke:none;" d="M8.33333 149.667L8.66667 150.333L8.33333 149.667z"/>
<path style="fill:#9d754e; stroke:none;" d="M2.33333 150.667L2.66667 151.333L2.33333 150.667M8.33333 151.667L8.66667 152.333L8.33333 151.667z"/>
<path style="fill:#885d31; stroke:none;" d="M9 152C13.1995 163.45 23.8524 171.47 36 172L36 171C22.802 169.84 17.3214 160.688 9 152M171 152L167 160L168 160L171 152z"/>
<path style="fill:#9d754e; stroke:none;" d="M3 154L4 155L3 154M9 154L10 155L9 154M176 154L177 155L176 154M4 155L6 158L4 155M10.3333 155.667L10.6667 156.333L10.3333 155.667M175 156L176 157L175 156M11.3333 157.667L11.6667 158.333L11.3333 157.667M174 157L175 158L174 157M12 159L13 160L12 159M6 160L7 161L6 160M8 160L7 162L8 160M13 160L18 165L13 160z"/>
<path style="fill:#e2e0dd; stroke:none;" d="M152 161L153 162L152 161z"/>
<path style="fill:#885d31; stroke:none;" d="M165 161L148 171L148 172C153.531 170.84 164.548 167.728 165 161z"/>
<path style="fill:#9d754e; stroke:none;" d="M10 165L13 168L10 165M18 165L19 166L18 165M18 167L35 175L36 172L18 167M167 167L165 170L167 167M14 169L15 170L14 169M15 170L17 172L17 170L15 170M163 170L162 172L164 172L163 170z"/>
<path style="fill:#885d31; stroke:none;" d="M138 171L138 172L141 172L138 171z"/>
<path style="fill:#292119; stroke:none;" d="M141 171L142 180L144 180L144 171L141 171z"/>
<path style="fill:#885d31; stroke:none;" d="M144 173L147 171L144 173z"/>
<path style="fill:#9d754e; stroke:none;" d="M18 172L19 173L18 172M159 174L162 173L159 174M20 173L22 175L20 173M23 173L24 174L23 173z"/>
<path style="fill:#885d31; stroke:none;" d="M141 173L141 180L142 180L141 173M36 174L36 177L37 177L36 174z"/>
<path style="fill:#9d754e; stroke:none;" d="M156 174L155 176L157 176L156 174M88 175L88 180L89 180L88 175M138 175L139 176L138 175M26.6667 176.333L27.3333 176.667L26.6667 176.333M35 176L33 178L33 179C35.2508 178.527 36.1178 178.14 35 176z"/>
<path style="fill:#885d31; stroke:none;" d="M38 176L38 179L39 179L38 176z"/>
<path style="fill:#9d754e; stroke:none;" d="M39.3333 176.667L39.6667 177.333L39.3333 176.667M144.333 176.667L144.667 177.333L144.333 176.667M150 176L146 178L146 179L150 176M153.667 176.333L154.333 176.667L153.667 176.333M28.6667 177.333L29.3333 177.667L28.6667 177.333M31 178L32 179L31 178M40 178L39 180L41 180L40 178M42.3333 178.667L42.6667 179.333L42.3333 178.667M93 178L93 180L95 180L93 178M98 178L97 180L99 180L98 178M101 178L101 180L103 180L101 178M104 178L104 180L106 180L104 178M107 179L107 180L111 180L107 179M115.333 178.667L115.667 179.333L115.333 178.667M117 178L121 180L121 179L117 178M122 178C125.514 182.022 135.909 180 141 180L141 179L122 178z"/>
<path style="fill:#885d31; stroke:none;" d="M36 179L37 180L36 179z"/>
<path style="fill:#9d754e; stroke:none;" d="M45 179L46 180L45 179M47 179L47 180L51 180L47 179M112.667 179.333L113.333 179.667L112.667 179.333z"/>
</svg>
